<svg xmlns="http://www.w3.org/2000/svg" xmlns:xlink="http://www.w3.org/1999/xlink" viewBox="0 0 430 430" width="430" height="430" preserveAspectRatio="xMidYMid meet" style="width: 100%; height: 100%; transform: translate3d(0px, 0px, 0px); content-visibility: visible;"><defs><clipPath id="__lottie_element_3125"><rect width="430" height="430" x="0" y="0"/></clipPath><clipPath id="__lottie_element_3127"><path d="M0,0 L430,0 L430,430 L0,430z"/></clipPath><clipPath id="__lottie_element_3220"><path d="M0,0 L430,0 L430,430 L0,430z"/></clipPath><clipPath id="__lottie_element_3245"><path d="M0,0 L430,0 L430,430 L0,430z"/></clipPath></defs><g clip-path="url(#__lottie_element_3125)"><g clip-path="url(#__lottie_element_3220)" transform="matrix(1,0,0,1,0,0)" opacity="1" style="display: block;"><g transform="matrix(0.9403429627418518,0,0,0.9403429627418518,214.5,215.5)" opacity="1" style="display: block;"><g opacity="1" transform="matrix(1,0,0,1,0,0)"><path class="primary" fill="rgb(235,230,238)" fill-opacity="1" d=" M0,167.5 C92.50800323486328,167.5 167.5,92.50800323486328 167.5,0 C167.5,-92.50800323486328 92.50800323486328,-167.5 0,-167.5 C-92.50800323486328,-167.5 -167.5,-92.50800323486328 -167.5,0 C-167.5,92.50800323486328 -92.50800323486328,167.5 0,167.5z"/></g><g opacity="0.5" transform="matrix(1,0,0,1,-38.1879997253418,4.656000137329102)" style="mix-blend-mode: multiply;"><path class="primary" fill="rgb(235,230,238)" fill-opacity="1" d=" M63.92599868774414,161.03399658203125 C87.33899688720703,157.4149932861328 109.72000122070312,148.8820037841797 129.5989990234375,135.9949951171875 C90.84300231933594,149.79100036621094 48.37099838256836,148.87899780273438 10.244000434875488,133.4290008544922 C-27.882999420166016,117.97899627685547 -59.01100158691406,89.06900024414062 -77.23100280761719,52.185001373291016 C-95.45099639892578,15.300999641418457 -99.49400329589844,-26.988000869750977 -88.59400177001953,-66.65599822998047 C-77.69400024414062,-106.3239974975586 -52.60900115966797,-140.61000061035156 -18.10099983215332,-163.0050048828125 C-40.41600036621094,-155.0489959716797 -60.792999267578125,-142.45899963378906 -77.8949966430664,-126.06500244140625 C-94.99700164794922,-109.6709976196289 -108.43599700927734,-89.84300231933594 -117.3270034790039,-67.88400268554688 C-126.21800231933594,-45.92499923706055 -130.36099243164062,-22.332000732421875 -129.48399353027344,1.3420000076293945 C-128.60699462890625,25.016000747680664 -122.72899627685547,48.23699951171875 -112.23699951171875,69.47699737548828 C-101.74500274658203,90.71700286865234 -86.875,109.49600219726562 -68.60700225830078,124.58000183105469 C-50.3390007019043,139.66400146484375 -29.083999633789062,150.7100067138672 -6.242000102996826,156.9929962158203 C16.600000381469727,163.2760009765625 40.51300048828125,164.6529998779297 63.92599868774414,161.03399658203125z"/></g></g><g transform="matrix(0.9403429627418518,0,0,0.9403429627418518,215.0059051513672,220.88157653808594)" opacity="1" style="display: block;"><g opacity="1" transform="matrix(1,0,0,1,0,0)"><path class="secondary" fill="rgb(7,168,137)" fill-opacity="1" d=" M-10.199291229248047,-2.9284510612487793 C-10.199291229248047,-2.9284510612487793 -25.54599952697754,12.392999649047852 -25.54599952697754,12.392999649047852 C-25.54599952697754,12.392999649047852 -90.97814178466797,-53.03914260864258 -90.97814178466797,-53.03914260864258 C-92.15013885498047,-54.21113967895508 -94.04829406738281,-54.21113967895508 -95.22029113769531,-53.03914260864258 C-95.22029113769531,-53.03914260864258 -129.86830139160156,-18.39029312133789 -129.86830139160156,-18.39029312133789 C-131.04029846191406,-17.218294143676758 -131.04029846191406,-15.320140838623047 -129.86830139160156,-14.148140907287598 C-129.86830139160156,-14.148140907287598 -27.66699981689453,88.05400085449219 -27.66699981689453,88.05400085449219 C-26.4950008392334,89.22599792480469 -24.59600067138672,89.22599792480469 -23.423999786376953,88.05400085449219 C-23.423999786376953,88.05400085449219 26.971410751342773,37.65658950805664 26.971410751342773,37.65658950805664 C28.143409729003906,36.484588623046875 28.143409729003906,34.58559036254883 26.971410751342773,33.41358947753906 C26.971410751342773,33.41358947753906 -7.6765899658203125,-1.234410285949707 -7.6765899658203125,-1.234410285949707 C-8.848589897155762,-2.4064102172851562 -9.589713096618652,-2.7858753204345703 -10.199291229248047,-2.9284510612487793z"/></g><g opacity="0.5" transform="matrix(1,0,0,1,-70.125,25.562000274658203)" style="mix-blend-mode: multiply;"><path class="secondary" fill="rgb(7,168,137)" fill-opacity="1" d=" M-20.87029457092285,-78.58529663085938 C-20.87029457092285,-78.58529663085938 44.56100082397461,-13.154000282287598 44.56100082397461,-13.154000282287598 C44.56100082397461,-13.154000282287598 44.5620002746582,63.38600158691406 44.5620002746582,63.38600158691406 C43.79399871826172,63.38600158691406 43.027000427246094,63.09400177001953 42.441001892089844,62.507999420166016 C42.441001892089844,62.507999420166016 -59.761295318603516,-39.69429397583008 -59.761295318603516,-39.69429397583008 C-60.91829299926758,-40.851295471191406 -60.933292388916016,-42.71729278564453 -59.805294036865234,-43.892295837402344 C-59.805294036865234,-43.892295837402344 -25.068294525146484,-78.62914276123047 -25.068294525146484,-78.62914276123047 C-23.893293380737305,-79.75714111328125 -22.027294158935547,-79.74229431152344 -20.87029457092285,-78.58529663085938z"/></g></g></g><g clip-path="url(#__lottie_element_3127)" transform="matrix(1,0,0,1,0,0)" opacity="1" style="display: none;"><g transform="matrix(1,0,0,1,214.5,215.5)" opacity="1" style="display: block;"><g opacity="1" transform="matrix(1,0,0,1,0,0)"><path class="primary" fill="rgb(235,230,239)" fill-opacity="1" d=" M0,167.5 C92.50800323486328,167.5 167.5,92.50800323486328 167.5,0 C167.5,-92.50800323486328 92.50800323486328,-167.5 0,-167.5 C-92.50800323486328,-167.5 -167.5,-92.50800323486328 -167.5,0 C-167.5,92.50800323486328 -92.50800323486328,167.5 0,167.5z"/></g><g opacity="0.5" transform="matrix(1,0,0,1,-38.1879997253418,4.656000137329102)" style="mix-blend-mode: multiply;"><path class="primary" fill="rgb(235,230,239)" fill-opacity="1" d=" M63.92599868774414,161.03399658203125 C87.33899688720703,157.4149932861328 109.72000122070312,148.8820037841797 129.5989990234375,135.9949951171875 C90.84300231933594,149.79100036621094 48.37099838256836,148.87899780273438 10.244000434875488,133.4290008544922 C-27.882999420166016,117.97899627685547 -59.01100158691406,89.06900024414062 -77.23100280761719,52.185001373291016 C-95.45099639892578,15.300999641418457 -99.49400329589844,-26.988000869750977 -88.59400177001953,-66.65599822998047 C-77.69400024414062,-106.3239974975586 -52.60900115966797,-140.61000061035156 -18.10099983215332,-163.0050048828125 C-40.41600036621094,-155.0489959716797 -60.792999267578125,-142.45899963378906 -77.8949966430664,-126.06500244140625 C-94.99700164794922,-109.6709976196289 -108.43599700927734,-89.84300231933594 -117.3270034790039,-67.88400268554688 C-126.21800231933594,-45.92499923706055 -130.36099243164062,-22.332000732421875 -129.48399353027344,1.3420000076293945 C-128.60699462890625,25.016000747680664 -122.72899627685547,48.23699951171875 -112.23699951171875,69.47699737548828 C-101.74500274658203,90.71700286865234 -86.875,109.49600219726562 -68.60700225830078,124.58000183105469 C-50.3390007019043,139.66400146484375 -29.083999633789062,150.7100067138672 -6.242000102996826,156.9929962158203 C16.600000381469727,163.2760009765625 40.51300048828125,164.6529998779297 63.92599868774414,161.03399658203125z"/></g></g><g transform="matrix(1.0581938028335571,0,0,1.0581938028335571,215.0269775390625,221.1073760986328)" opacity="1" style="display: none;"><g opacity="1" transform="matrix(1,0,0,1,0,0)"><path class="secondary" fill="rgb(8,168,138)" fill-opacity="1" d=" M74.9000015258789,-88.05400085449219 C74.9000015258789,-88.05400085449219 62.460845947265625,-75.55955505371094 62.460845947265625,-75.55955505371094 C62.460845947265625,-75.55955505371094 62.27128982543945,-75.44769287109375 62.27128982543945,-75.44769287109375 C60.98529052734375,-74.16069030761719 62.03767395019531,-75.29051971435547 61.98392868041992,-75.15008544921875 C61.98392868041992,-75.15008544921875 57.615535736083984,-70.83598327636719 57.615535736083984,-70.83598327636719 C56.443538665771484,-69.66398620605469 56.53898620605469,-67.6966781616211 57.71098709106445,-66.5246810913086 C57.71098709106445,-66.5246810913086 92.41199493408203,-31.970699310302734 92.41199493408203,-31.970699310302734 C93.58399200439453,-30.79869842529297 95.48299407958984,-30.79869842529297 96.65499114990234,-31.970699310302734 C96.65499114990234,-31.970699310302734 113.79100036621094,-49.16299819946289 113.79100036621094,-49.16299819946289 C114.96299743652344,-50.334999084472656 114.96299743652344,-52.23400115966797 113.79100036621094,-53.40599822998047 C113.79100036621094,-53.40599822998047 79.14299774169922,-88.05400085449219 79.14299774169922,-88.05400085449219 C77.97100067138672,-89.22599792480469 76.0719985961914,-89.22599792480469 74.9000015258789,-88.05400085449219z"/></g><g opacity="0.5" transform="matrix(1,0,0,1,-70.125,25.562000274658203)" style="mix-blend-mode: multiply;"><path class="secondary" fill="rgb(8,168,138)" fill-opacity="1" d=" M132.37916564941406,-100.99369049072266 C132.3887939453125,-101.00332641601562 132.56784057617188,-101.10567474365234 132.56784057617188,-101.10567474365234 C132.56784057617188,-101.10567474365234 164.6409912109375,-56.637821197509766 164.6409912109375,-56.637821197509766 C163.87298583984375,-56.637821197509766 163.10598754882812,-56.93069839477539 162.51998901367188,-57.51669692993164 C162.51998901367188,-57.51669692993164 127.81798553466797,-92.0716781616211 127.81798553466797,-92.0716781616211 C126.6609878540039,-93.22868347167969 126.53565216064453,-95.23479461669922 127.73370361328125,-96.37914276123047 C127.73370361328125,-96.37914276123047 132.13592529296875,-100.74008178710938 132.13592529296875,-100.74008178710938 C132.28199768066406,-100.88030242919922 132.1646270751953,-100.81352996826172 132.37916564941406,-100.99369049072266z"/></g></g><g transform="matrix(1,0,0,1,214.9980010986328,220.7989959716797)" opacity="1" style="display: block;"><g opacity="1" transform="matrix(1,0,0,1,0,0)"><path class="secondary" fill="rgb(8,168,138)" fill-opacity="1" d=" M74.9000015258789,-88.05400085449219 C74.9000015258789,-88.05400085449219 -25.54599952697754,12.392999649047852 -25.54599952697754,12.392999649047852 C-25.54599952697754,12.392999649047852 -74.9000015258789,-36.96099853515625 -74.9000015258789,-36.96099853515625 C-76.0719985961914,-38.132999420166016 -77.97100067138672,-38.132999420166016 -79.14299774169922,-36.96099853515625 C-79.14299774169922,-36.96099853515625 -113.79100036621094,-2.312999963760376 -113.79100036621094,-2.312999963760376 C-114.96299743652344,-1.1410000324249268 -114.96299743652344,0.7580000162124634 -113.79100036621094,1.9299999475479126 C-113.79100036621094,1.9299999475479126 -27.66699981689453,88.05400085449219 -27.66699981689453,88.05400085449219 C-26.4950008392334,89.22599792480469 -24.59600067138672,89.22599792480469 -23.423999786376953,88.05400085449219 C-23.423999786376953,88.05400085449219 113.79100036621094,-49.16299819946289 113.79100036621094,-49.16299819946289 C114.96299743652344,-50.334999084472656 114.96299743652344,-52.23400115966797 113.79100036621094,-53.40599822998047 C113.79100036621094,-53.40599822998047 79.14299774169922,-88.05400085449219 79.14299774169922,-88.05400085449219 C77.97100067138672,-89.22599792480469 76.0719985961914,-89.22599792480469 74.9000015258789,-88.05400085449219z"/></g><g opacity="0.5" transform="matrix(1,0,0,1,-70.125,25.562000274658203)" style="mix-blend-mode: multiply;"><path class="secondary" fill="rgb(8,168,138)" fill-opacity="1" d=" M-4.793000221252441,-62.507999420166016 C-4.793000221252441,-62.507999420166016 44.56100082397461,-13.154000282287598 44.56100082397461,-13.154000282287598 C44.56100082397461,-13.154000282287598 44.5620002746582,63.38600158691406 44.5620002746582,63.38600158691406 C43.79399871826172,63.38600158691406 43.027000427246094,63.09400177001953 42.441001892089844,62.507999420166016 C42.441001892089844,62.507999420166016 -43.683998107910156,-23.617000579833984 -43.683998107910156,-23.617000579833984 C-44.840999603271484,-24.77400016784668 -44.85599899291992,-26.639999389648438 -43.72800064086914,-27.815000534057617 C-43.72800064086914,-27.815000534057617 -8.991000175476074,-62.55099868774414 -8.991000175476074,-62.55099868774414 C-7.815999984741211,-63.67900085449219 -5.949999809265137,-63.665000915527344 -4.793000221252441,-62.507999420166016z"/></g></g></g><g clip-path="url(#__lottie_element_3245)" transform="matrix(1,0,0,1,0,0)" opacity="1" style="display: none;"><g transform="matrix(1,0,0,1,214.5,215.5)" opacity="1" style="display: block;"><g opacity="1" transform="matrix(1,0,0,1,0,0)"><path class="primary" fill="rgb(235,230,239)" fill-opacity="1" d=" M0,167.5 C92.50800323486328,167.5 167.5,92.50800323486328 167.5,0 C167.5,-92.50800323486328 92.50800323486328,-167.5 0,-167.5 C-92.50800323486328,-167.5 -167.5,-92.50800323486328 -167.5,0 C-167.5,92.50800323486328 -92.50800323486328,167.5 0,167.5z"/></g><g opacity="0.5" transform="matrix(1,0,0,1,-38.1879997253418,4.656000137329102)" style="mix-blend-mode: multiply;"><path class="primary" fill="rgb(235,230,239)" fill-opacity="1" d=" M63.92599868774414,161.03399658203125 C87.33899688720703,157.4149932861328 109.72000122070312,148.8820037841797 129.5989990234375,135.9949951171875 C90.84300231933594,149.79100036621094 48.37099838256836,148.87899780273438 10.244000434875488,133.4290008544922 C-27.882999420166016,117.97899627685547 -59.01100158691406,89.06900024414062 -77.23100280761719,52.185001373291016 C-95.45099639892578,15.300999641418457 -99.49400329589844,-26.988000869750977 -88.59400177001953,-66.65599822998047 C-77.69400024414062,-106.3239974975586 -52.60900115966797,-140.61000061035156 -18.10099983215332,-163.0050048828125 C-40.41600036621094,-155.0489959716797 -60.792999267578125,-142.45899963378906 -77.8949966430664,-126.06500244140625 C-94.99700164794922,-109.6709976196289 -108.43599700927734,-89.84300231933594 -117.3270034790039,-67.88400268554688 C-126.21800231933594,-45.92499923706055 -130.36099243164062,-22.332000732421875 -129.48399353027344,1.3420000076293945 C-128.60699462890625,25.016000747680664 -122.72899627685547,48.23699951171875 -112.23699951171875,69.47699737548828 C-101.74500274658203,90.71700286865234 -86.875,109.49600219726562 -68.60700225830078,124.58000183105469 C-50.3390007019043,139.66400146484375 -29.083999633789062,150.7100067138672 -6.242000102996826,156.9929962158203 C16.600000381469727,163.2760009765625 40.51300048828125,164.6529998779297 63.92599868774414,161.03399658203125z"/></g></g><g transform="matrix(1,0,0,1,214.9980010986328,220.7989959716797)" opacity="1" style="display: block;"><g opacity="1" transform="matrix(1,0,0,1,0,0)"><path class="secondary" fill="rgb(8,168,138)" fill-opacity="1" d=" M74.9000015258789,-88.05400085449219 C74.9000015258789,-88.05400085449219 -25.54599952697754,12.392999649047852 -25.54599952697754,12.392999649047852 C-25.54599952697754,12.392999649047852 -74.9000015258789,-36.96099853515625 -74.9000015258789,-36.96099853515625 C-76.0719985961914,-38.132999420166016 -77.97100067138672,-38.132999420166016 -79.14299774169922,-36.96099853515625 C-79.14299774169922,-36.96099853515625 -113.79100036621094,-2.312999963760376 -113.79100036621094,-2.312999963760376 C-114.96299743652344,-1.1410000324249268 -114.96299743652344,0.7580000162124634 -113.79100036621094,1.9299999475479126 C-113.79100036621094,1.9299999475479126 -27.66699981689453,88.05400085449219 -27.66699981689453,88.05400085449219 C-26.4950008392334,89.22599792480469 -24.59600067138672,89.22599792480469 -23.423999786376953,88.05400085449219 C-23.423999786376953,88.05400085449219 113.79100036621094,-49.16299819946289 113.79100036621094,-49.16299819946289 C114.96299743652344,-50.334999084472656 114.96299743652344,-52.23400115966797 113.79100036621094,-53.40599822998047 C113.79100036621094,-53.40599822998047 79.14299774169922,-88.05400085449219 79.14299774169922,-88.05400085449219 C77.97100067138672,-89.22599792480469 76.0719985961914,-89.22599792480469 74.9000015258789,-88.05400085449219z"/></g><g opacity="0.5" transform="matrix(1,0,0,1,-70.125,25.562000274658203)" style="mix-blend-mode: multiply;"><path class="secondary" fill="rgb(8,168,138)" fill-opacity="1" d=" M-4.793000221252441,-62.507999420166016 C-4.793000221252441,-62.507999420166016 44.56100082397461,-13.154000282287598 44.56100082397461,-13.154000282287598 C44.56100082397461,-13.154000282287598 44.5620002746582,63.38600158691406 44.5620002746582,63.38600158691406 C43.79399871826172,63.38600158691406 43.027000427246094,63.09400177001953 42.441001892089844,62.507999420166016 C42.441001892089844,62.507999420166016 -43.683998107910156,-23.617000579833984 -43.683998107910156,-23.617000579833984 C-44.840999603271484,-24.77400016784668 -44.85599899291992,-26.639999389648438 -43.72800064086914,-27.815000534057617 C-43.72800064086914,-27.815000534057617 -8.991000175476074,-62.55099868774414 -8.991000175476074,-62.55099868774414 C-7.815999984741211,-63.67900085449219 -5.949999809265137,-63.665000915527344 -4.793000221252441,-62.507999420166016z"/></g></g></g></g></svg>